<?xml version="1.0" encoding="utf-8"?>
<!-- Generator: Adobe Illustrator 25.3.1, SVG Export Plug-In . SVG Version: 6.00 Build 0)  -->
<svg version="1.1" id="Layer_1" xmlns="http://www.w3.org/2000/svg" xmlns:xlink="http://www.w3.org/1999/xlink" x="0px" y="0px"
	 viewBox="0 0 1000 1000" style="enable-background:new 0 0 1000 1000;" xml:space="preserve">
<style type="text/css">
	.st0{fill:#008553;}
	.st1{fill:#FFFFFF;}
</style>
<rect x="-36.35" y="-32" class="st0" width="1087.06" height="1070.59"/>
<g>
	<line class="st1" x1="458.31" y1="541.69" x2="271.21" y2="728.79"/>
	<polyline points="436.28,519.65 249.18,706.76 293.24,750.82 480.35,563.72 	"/>
	<path d="M674.82,541.69l-22.03-22.03c-11.97,11.96-25.66,20.84-40.32,26.79c-14.65,5.94-30.27,8.93-45.9,8.93
		c-15.63,0-31.25-2.98-45.9-8.93c-14.66-5.95-28.35-14.83-40.32-26.79c-11.96-11.97-20.84-25.66-26.79-40.32
		c-5.94-14.65-8.93-30.27-8.93-45.9c0-15.63,2.98-31.25,8.93-45.9c5.95-14.66,14.83-28.35,26.79-40.32
		c11.97-11.96,25.66-20.84,40.32-26.79c14.65-5.94,30.27-8.93,45.9-8.93c15.63,0,31.25,2.98,45.9,8.93
		c14.66,5.95,28.35,14.83,40.32,26.79c11.96,11.97,20.84,25.66,26.79,40.32c5.94,14.65,8.93,30.27,8.93,45.9
		c0,15.63-2.98,31.25-8.93,45.9c-5.95,14.66-14.83,28.35-26.79,40.32L674.82,541.69l22.03,22.03
		c17.93-17.92,31.48-38.77,40.47-60.97c9-22.21,13.49-45.77,13.49-69.32c0-23.55-4.49-47.11-13.49-69.32
		c-9-22.2-22.54-43.04-40.47-60.97c-17.92-17.93-38.77-31.48-60.97-40.47c-22.21-9-45.77-13.49-69.32-13.49
		c-23.55,0-47.11,4.49-69.32,13.49c-22.2,9-43.04,22.54-60.97,40.47c-17.93,17.92-31.48,38.77-40.47,60.97
		c-9,22.21-13.49,45.77-13.49,69.32c0,23.55,4.49,47.11,13.49,69.32c9,22.2,22.54,43.04,40.47,60.97
		c17.92,17.93,38.77,31.48,60.97,40.47c22.21,9,45.77,13.49,69.32,13.49c23.55,0,47.11-4.49,69.32-13.49
		c22.2-9,43.04-22.54,60.97-40.47L674.82,541.69z"/>
</g>
</svg>
